# xmcd
#
# Track frame offsets:
#	150
#	12625
#	26538
#	40521
#	51299
#	62279
#	79456
#	90195
#	102611
#	117707
#	131406
#	146040
#	159042
#	172257
#	187134
#	202359
#	215615
#	225792
#	237177
#	252322
#	267479
#	277957
#
# Disc length: 3907 seconds
#
# Revision: 0
# Processed by: cddbd v1.5.2PL0 Copyright (c) Steve Scherf et al.
# Submitted via: audiograbber 1.83.01
#
DISCID=3f0f4116
DTITLE=George Jones - The Spirit of Country CD2
DYEAR=1994
DGENRE=Country
TTITLE0=The Door
TTITLE1=These Days (I Barely Get By)
TTITLE2=Golden Ring
TTITLE3=Her Name Is
TTITLE4=Near You
TTITLE5=Bartender's Blues
TTITLE6=Maybelline
TTITLE7=Two Story House
TTITLE8=He Stopped Loving Her Today
TTITLE9=I'm Not Ready Yet
TTITLE10=If Drinkin' Don't Kill Me
TTITLE11=Still Doin' Time
TTITLE12=Same Ole Me
TTITLE13=Yesterday's Wine
TTITLE14=I Always Get Lucky With You
TTITLE15=Tennessee Whiskey
TTITLE16=We Didn't See A Thing
TTITLE17=She's My Rock
TTITLE18=Who's Gonna Fill Their Shoes
TTITLE19=Wine Colored Roses
TTITLE20=I'm A One Woman Man
TTITLE21=The King Is Gone (So Are You)
EXTD=
EXTT0=
EXTT1=
EXTT2=
EXTT3=
EXTT4=
EXTT5=
EXTT6=
EXTT7=
EXTT8=
EXTT9=
EXTT10=
EXTT11=
EXTT12=
EXTT13=
EXTT14=
EXTT15=
EXTT16=
EXTT17=
EXTT18=
EXTT19=
EXTT20=
EXTT21=
PLAYORDER=
